<?xml version="1.0" standalone="no"?><svg xmlns="http://www.w3.org/2000/svg" viewBox="0 0 1440 320"><path fill="#ac0936" fill-opacity="1" d="M0,160L6.7,138.7C13.3,117,27,75,40,96C53.3,117,67,203,80,234.7C93.3,267,107,245,120,250.7C133.3,256,147,288,160,293.3C173.3,299,187,277,200,240C213.3,203,227,149,240,122.7C253.3,96,267,96,280,112C293.3,128,307,160,320,154.7C333.3,149,347,107,360,80C373.3,53,387,43,400,48C413.3,53,427,75,440,85.3C453.3,96,467,96,480,122.7C493.3,149,507,203,520,197.3C533.3,192,547,128,560,85.3C573.3,43,587,21,600,42.7C613.3,64,627,128,640,133.3C653.3,139,667,85,680,96C693.3,107,707,181,720,224C733.3,267,747,277,760,272C773.3,267,787,245,800,245.3C813.3,245,827,267,840,282.7C853.3,299,867,309,880,314.7C893.3,320,907,320,920,282.7C933.3,245,947,171,960,170.7C973.3,171,987,245,1000,272C1013.3,299,1027,277,1040,266.7C1053.3,256,1067,256,1080,245.3C1093.3,235,1107,213,1120,181.3C1133.3,149,1147,107,1160,90.7C1173.3,75,1187,85,1200,122.7C1213.3,160,1227,224,1240,224C1253.3,224,1267,160,1280,128C1293.3,96,1307,96,1320,80C1333.3,64,1347,32,1360,53.3C1373.3,75,1387,149,1400,165.3C1413.3,181,1427,139,1433,117.3L1440,96L1440,320L1433.3,320C1426.7,320,1413,320,1400,320C1386.7,320,1373,320,1360,320C1346.7,320,1333,320,1320,320C1306.7,320,1293,320,1280,320C1266.7,320,1253,320,1240,320C1226.7,320,1213,320,1200,320C1186.7,320,1173,320,1160,320C1146.7,320,1133,320,1120,320C1106.7,320,1093,320,1080,320C1066.7,320,1053,320,1040,320C1026.7,320,1013,320,1000,320C986.7,320,973,320,960,320C946.7,320,933,320,920,320C906.7,320,893,320,880,320C866.7,320,853,320,840,320C826.7,320,813,320,800,320C786.7,320,773,320,760,320C746.7,320,733,320,720,320C706.7,320,693,320,680,320C666.7,320,653,320,640,320C626.7,320,613,320,600,320C586.7,320,573,320,560,320C546.7,320,533,320,520,320C506.7,320,493,320,480,320C466.7,320,453,320,440,320C426.7,320,413,320,400,320C386.7,320,373,320,360,320C346.7,320,333,320,320,320C306.7,320,293,320,280,320C266.7,320,253,320,240,320C226.7,320,213,320,200,320C186.7,320,173,320,160,320C146.7,320,133,320,120,320C106.7,320,93,320,80,320C66.7,320,53,320,40,320C26.7,320,13,320,7,320L0,320Z"></path></svg>